<?xml version="1.0" encoding="utf-8"?>
<!-- Generator: Adobe Illustrator 23.0.3, SVG Export Plug-In . SVG Version: 6.00 Build 0)  -->
<svg version="1.1" id="Layer_1" xmlns="http://www.w3.org/2000/svg" xmlns:xlink="http://www.w3.org/1999/xlink" x="0px" y="0px"
	 viewBox="0 0 31.8 17.9" style="enable-background:new 0 0 31.8 17.9;" xml:space="preserve">
<style type="text/css">
	.st0{fill:#FF3008;}
</style>
<path class="st0" d="M30.6,4.2C29.2,1.6,26.4,0,23.4,0H0.8C0.5,0,0.2,0.2,0.1,0.5C-0.1,0.8,0,1.1,0.2,1.3l4.9,4.9
	c0.4,0.4,1,0.7,1.6,0.7h16c1.1,0,2.1,0.9,2.1,2s-0.9,2-2,2.1h-11c-0.3,0-0.6,0.2-0.7,0.5c-0.1,0.3-0.1,0.6,0.2,0.8l4.9,4.9
	c0.4,0.4,1,0.7,1.6,0.7h5C29.3,17.9,34.2,11,30.6,4.2"/>
</svg>
