<svg width="600" height="170" xmlns="http://www.w3.org/2000/svg" xml:space="preserve" version="1.1">

 <g>
  <title>Layer 1</title>
  <path id="svg_1" fill="#FF8000" d="m597.4,68.3c0.3,0 0.6,-0.2 0.6,-0.6c0,-0.4 -0.2,-0.6 -0.6,-0.6l-0.6,0l0,1.2l0.6,0zm-1.2,-1.6l1.3,0c0.7,0 1.1,0.4 1.1,1.1c0,0.5 -0.4,0.8 -0.6,0.9l0,0c0,0 0,0 0.1,0.2l0.7,1.3l-0.7,0l-0.6,-1.3l-0.6,0l0,1.3l-0.7,0l0,-3.5zm1.1,4.5c1.5,0 2.6,-1.2 2.6,-2.7c0,-1.5 -1.1,-2.7 -2.6,-2.7c-1.5,0 -2.6,1.2 -2.6,2.7c0,1.5 1.2,2.7 2.6,2.7zm0,-6.1c1.8,0 3.3,1.5 3.3,3.4c0,1.9 -1.5,3.4 -3.3,3.4c-1.8,0 -3.3,-1.5 -3.3,-3.4c0.1,-1.9 1.5,-3.4 3.3,-3.4zm-16.4,58.5l0,0c0.1,2.4 -0.7,4.8 -2.1,6.7l0.1,0.1l0.1,-0.1c-1.3,1.6 -3.3,2.4 -5.3,2.2l-8.2,0l0,-17.5l8.2,0c2,-0.2 4,0.7 5.3,2.2l-0.1,-0.1c1.4,1.9 2.1,4.2 2,6.5l0,0zm-15.5,-40.9l7.2,0c1.8,-0.1 3.6,0.6 4.8,1.9l0.1,0.1c1.3,1.7 1.9,3.8 1.7,5.9c0.2,2.2 -0.5,4.5 -1.8,6.3l0,-0.1c-1.2,1.4 -2.9,2.1 -4.8,2l-7.3,0l0,-16.1l0.1,0zm32.3,40.8l0,0.1c0,-6.8 -3.1,-13.2 -8.4,-17.5l0.1,0.1l0.1,-0.1c4.4,-4.2 6.8,-10 6.8,-16l0,0.3c0.2,-6.3 -2,-12.5 -6.1,-17.3l0.1,0.2c-4.5,-5 -10.9,-7.8 -17.7,-7.7l-23,0c-0.8,0 -1.4,0.6 -1.4,1.4c0,0 0,0 0,0l0,80.9c0,0.8 0.6,1.4 1.4,1.4l23.9,0c7.3,0.1 14.2,-3 18.8,-8.6l-0.1,0.1c4,-5 5.9,-11.1 5.5,-17.3m-62.2,1.1l0,-57.6c-0.1,-0.7 -0.6,-1.3 -1.3,-1.3l-14.8,0c-0.7,-0.1 -1.4,0.5 -1.4,1.2c0,0 0,0 0,0l0,57.6c0.1,2.3 -0.5,4.6 -1.9,6.5c-2.4,2.6 -6.5,2.9 -9.2,0.5c-0.2,-0.1 -0.3,-0.3 -0.5,-0.5c-1.4,-1.9 -2,-4.1 -1.9,-6.4l0,-57.6c-0.1,-0.7 -0.7,-1.3 -1.4,-1.3l-14.7,0c-0.7,0 -1.4,0.5 -1.4,1.3l0,57.8c-0.5,6.8 1.7,13.6 6.2,18.9l0.2,0.2c10.3,9.3 26,9.2 36.2,-0.3l-0.2,0.2c4.4,-5.5 6.6,-12.3 6.1,-19.2m-62.5,-58.9c0,0 0,0 0,0l0,0l-14.4,0c-0.8,0 -1.4,0.6 -1.4,1.4c0,0 0,0 0,0l0,31.3l-14.6,0l0,-31.3c0,-0.8 -0.6,-1.4 -1.4,-1.4c0,0 0,0 0,0l-14.3,0c-0.8,0 -1.4,0.6 -1.4,1.4c0,0 0,0 0,0l0,80.7c0,0.8 0.6,1.4 1.4,1.4l14.3,0c0.8,0 1.4,-0.6 1.4,-1.4c0,0 0,0 0,0l0,-32.5l14.6,0l0,32.5c0,0.8 0.6,1.4 1.4,1.4l14.4,0c0.8,0 1.4,-0.6 1.4,-1.4c0,0 0,0 0,0l0,-80.7c0,-0.7 -0.6,-1.4 -1.4,-1.4zm-75.2,57.9l0,0c0.1,2.4 -0.7,4.8 -2.1,6.7l0.1,0.1l0.1,-0.1c-1.3,1.6 -3.3,2.4 -5.3,2.2l-8.2,0l0,-17.5l8.2,0c2,-0.2 4,0.7 5.3,2.2l-0.1,-0.1c1.4,1.9 2.1,4.2 2,6.5l0,0zm-15.5,-40.9l0,0l7.2,0c1.8,-0.1 3.6,0.6 4.8,1.9l0.1,0.1c1.3,1.7 1.9,3.8 1.7,5.9c0.2,2.2 -0.5,4.5 -1.8,6.3l0,-0.1c-1.2,1.4 -2.9,2.1 -4.8,2l-7.3,0l0,-16.1l0.1,0zm32.4,40.8l0,0.2c0,-6.8 -3.1,-13.2 -8.4,-17.5l0,0l0.1,-0.1c4.4,-4.2 6.8,-10 6.8,-16c0.1,-6.1 -2.1,-12 -6.1,-16.7l0,0.1c-4.5,-5 -10.9,-7.8 -17.7,-7.7l-22.9,0c-0.8,0 -1.4,0.6 -1.4,1.4c0,0 0,0 0,0l0,80.7c0,0.8 0.6,1.4 1.4,1.4l24,0c7.3,0.1 14.2,-3 18.8,-8.6l-0.1,0.1c4,-5 5.9,-11.1 5.5,-17.3m-62.2,1.1l0,-57.6c-0.1,-0.7 -0.7,-1.3 -1.4,-1.3l-14.7,0c-0.7,0 -1.4,0.5 -1.4,1.3l0,57.6c0.1,2.4 -0.6,4.7 -2,6.6c-2.4,2.6 -6.5,2.8 -9.1,0.4c-0.2,-0.1 -0.3,-0.3 -0.5,-0.5c-1.4,-1.9 -2,-4.1 -1.9,-6.4l0,-57.7c0,-0.7 -0.6,-1.3 -1.3,-1.3c0,0 -0.1,0 -0.1,0l-14.7,0c-0.7,-0.1 -1.4,0.5 -1.4,1.2c0,0 0,0 0,0l0,57.6c-0.5,6.9 1.7,13.8 6.2,19c4.7,4.7 11.2,7.3 18,7.1l0.2,0c6.7,0.2 13.2,-2.3 18,-7.1c4.3,-5.2 6.6,-12 6.1,-18.9m-78.1,-26.2l0,0l0,0c-1.4,1.6 -3.5,2.4 -5.7,2.3l-7,0l0,-18.1l7,0c2.2,-0.1 4.2,0.8 5.7,2.3l0,0.1c1.5,1.8 2.3,4.1 2.2,6.4l0,0.1c0.2,2.5 -0.6,5 -2.2,6.9zm8.9,14.9l0,0l0,0c1.5,-1.1 2.9,-2.3 4.1,-3.6l-0.1,0.1c4.4,-5.1 6.7,-11.6 6.5,-18.3l0,-0.2c0.1,-6.6 -2.3,-13 -6.7,-17.9l0.3,0.3c-4.4,-5 -10.7,-7.9 -17.3,-8.1l-24.1,0c-0.8,0 -1.4,0.6 -1.4,1.4c0,0 0,0 0,0l0,80.8c0,0.8 0.6,1.4 1.4,1.4l14.3,0c0.8,0 1.4,-0.6 1.4,-1.4c0,0 0,0 0,0l0,-29.8l5.3,0l9.1,30.5c0.2,0.6 0.7,1 1.4,1l15.2,0c0.5,0 0.9,-0.2 1.2,-0.6c0.2,-0.4 0.2,-0.9 0,-1.3l-10.6,-34.3m-56,-41.9c-4.8,-4.8 -11.3,-7.3 -18,-7.1l0,0l-0.1,0c-6.7,-0.2 -13.3,2.3 -18,7.1l0.2,-0.2c-4.6,5.3 -6.9,12.1 -6.5,19l0,34.4c-0.5,6.9 1.7,13.8 6.2,19c4.7,4.7 11.2,7.3 18,7.1l0.3,0c6.7,0.2 13.3,-2.3 18,-7.1c4.5,-5.3 6.7,-12.1 6.2,-19.1l0,-18.8c0,-0.8 -0.7,-1.4 -1.5,-1.4l-21.2,0c-0.8,0 -1.5,0.6 -1.5,1.4l0,14.1c0.1,0.8 0.7,1.5 1.5,1.5l5.8,0l0,3.2c0.1,2.4 -0.6,4.8 -2,6.8l0.1,-0.1c-1.3,1.6 -3.2,2.5 -5.2,2.3l-0.1,0c-2,0.2 -4,-0.6 -5.2,-2.2c-1.5,-1.9 -2.2,-4.3 -2.1,-6.7l0,-34.2c-0.1,-2.5 0.7,-4.9 2.2,-6.9c1.3,-1.6 3.2,-2.5 5.2,-2.3l0.1,0c2,-0.2 4,0.6 5.2,2.2l0.1,0.1c1.3,2 2,4.4 1.7,6.8l0,3.2c0.1,0.7 0.7,1.3 1.4,1.3l14.3,0c0.7,0 1.4,-0.5 1.4,-1.3l0,-3.2c0.4,-6.8 -2,-13.6 -6.5,-18.9l0,0m-84.1,-19.2c-0.3,-0.4 -0.6,-0.9 -0.6,-1.4l0,0c-1.5,-17.2 -4,-28.7 -4,-28.7c-0.4,-2 -2.1,-3.4 -4,-3.7l-13.8,-1.7c-0.1,0 -0.2,0 -0.4,0c-1.6,0 -2.9,1.3 -2.9,2.9l0,4.8c0,0.1 -0.1,0.2 -0.2,0.2c0,0 -0.1,0 -0.1,0l0,0c-8.2,-7.4 -17.5,-14.6 -27.8,-21c-2,-1.3 -4.3,-2.1 -6.8,-2.1l0,0l0,0l0,0c-2.5,0 -4.9,0.8 -6.8,2.1c-47.5,29.3 -73.7,77.1 -74.7,79.7c-0.3,0.6 -0.4,1.3 -0.4,2c0,2.2 1.5,4.1 3.6,4.6l13.7,2.6c1.8,0.5 3.2,2.1 3.4,4c0.1,2.4 2.7,56.4 6,70.4c0.5,2 2.4,3.5 4.6,3.5l0.1,0c8,-0.2 15.3,-0.3 23.2,-0.4c0,0 0,0 0,0l0,0l0.1,0c0.2,0 0.4,0 0.6,0c0.8,0 1.5,-0.7 1.5,-1.5c0,0 0,0 0,0c-0.3,-4.7 -1,-15.5 -1.6,-26.8c0,-0.3 0,-0.6 -0.1,-0.9l0,0c-0.1,-1 -0.6,-1.8 -1.4,-2.3c-4.1,-2.5 -6.9,-6.9 -7.2,-11.9c-0.7,-18.9 -1.1,-40.8 0,-57.9c0.1,-1.4 1.3,-2.6 2.7,-2.6c1.5,0 2.8,1.2 2.8,2.7c0,0.1 0,0.1 0,0.2c-0.7,11.4 -0.7,24.9 -0.5,38.2c0,1.8 1.5,3.2 3.3,3.2c1.8,0 3.2,-1.5 3.2,-3.3c-0.2,-13.4 -0.2,-27 0.5,-38.4c0.1,-1.4 1.3,-2.6 2.7,-2.6c1.5,0 2.8,1.2 2.8,2.7c0,0.1 0,0.1 0,0.2c-0.7,11.4 -0.7,24.8 -0.5,38c0,0 0,0 0,0c0,1.8 1.5,3.2 3.3,3.2c1.8,0 3.2,-1.5 3.2,-3.3c-0.2,-13.3 -0.2,-26.9 0.5,-38.3c0.1,-1.4 1.3,-2.6 2.7,-2.6c1.5,0 2.8,1.2 2.8,2.7c0,0.1 0,0.1 0,0.2c-1,16.6 -0.7,37.7 0,56.2c0,0 0,0.2 0,0.2c0,0.1 0,0.2 0,0.3c0,0 0,0 0,0c0,0.1 0,0.1 0,0.2c0,5.1 -2.5,9.5 -6.4,12.2c-0.7,0.5 -1.2,1.2 -1.2,2.1c0,0 -0.3,2.8 0.9,16.6c0.6,6 1,10.2 1.2,12c0.1,0.7 0.7,1.3 1.4,1.3c0.4,0 0.9,0 1.3,0l0,0c2.6,0 5.4,0 8.2,0l0.5,0l0.5,0c3.6,0 7,0 10.3,0l7.8,0.1c0,0 0,0 0,0c0.7,0 1.3,-0.6 1.5,-1.3c1.8,-16.5 2.2,-25.7 2.2,-25.7c0,-0.8 -0.6,-1.5 -1.5,-1.6l-9.4,-1.5c-1.5,-0.3 -2.4,-1.2 -2.7,-2.3c-0.2,-0.7 -0.1,-1.5 -0.1,-1.5c3.8,-54.9 21.9,-73.5 21.9,-73.5c0.5,-0.5 0.9,-0.8 0.9,-0.8c0.5,-0.3 1.1,-0.6 1.7,-0.6c1.2,0 2.3,0.8 2.7,1.8c0,0 0.1,0.4 0.2,1.3c1.6,17.3 0.8,46.7 -0.2,69.6c-0.8,19.5 -1.8,34.7 -1.8,34.7c0,0 0,0 0,0c0,0.6 0.5,1.1 1.1,1.1l0,0c5.1,0.1 10.2,0.2 15.6,0.3l0.1,0c2.2,0 4,-1.5 4.6,-3.5c3.3,-14 5.8,-68 6,-70.4c0.2,-1.9 1.6,-3.5 3.4,-4l13.7,-2.6c2,-0.5 3.6,-2.4 3.6,-4.6c0,-0.7 -0.2,-1.4 -0.4,-2c-0.7,-1.1 -7.8,-14.3 -21.1,-30.8" class="st0"/>
 </g>
</svg>