<svg xmlns="http://www.w3.org/2000/svg" width="650" height="600" stroke="#000" stroke-linecap="round" stroke-linejoin="round" fill="#fff" fill-rule="evenodd"><path d="M633.7837 234.1361c-19.8864-35.4813-54.0547-52.7675-87.4167-44.2243-17.6682 4.506-33.7855 16.0445-46.0697 32.9821l-25.2185-25.5265c7.3431-3.5254 30.2358-15.3551 20.7598-21.7792-2.5391-1.7365-7.7189-2.8986-14.4222-3.5254l55.2817-61.8382-15.5699-39.0014-51.3409 59.2007s-.0407-.0914-5.0376 5.7712l-.1016.1306-.0406.0392-.0203-.0523c-10.8979-.914-21.1255.2612-26.7826 1.3057l-.0102-.0261c-11.5073 2.6637-21.2473 4.57-25.899 3.3949-16.8597-4.2175-20.841-27.2501-28.4685-40.6597-4.347-7.5992-13.0714-8.4871-13.8128-15.0156 2.3166-.5197 4.5704-1.4285 6.7032-2.7028 9.1408-5.6799 12.4722-11.0071 14.9808-18.2146 3.1891-9.14-.2031-24.1817-5.0782-36.6512 3.8391-3.5646 18.1597-17.9273 17.6011-20.369-.2031-.914-18.0277 2.2589-25.3911 4.126-1.0157-1.6974-2.0313-3.0422-3.0165-3.8779-6.0939-5.7712-11.1112-11.6469-25.513-3.9171-24.6396 13.2398-23.3599 37.9307-15.184 60.0624 3.7579 10.1845 10.3596 16.5825 17.5301 19.8468l-1.0766 2.6767.6805-2.1936c-38.8993 45.1121-129.6981 121.065-153.6267 122.5796 19.8051 9.9233 76.8032 11.2943 100.7014-7.0508-6.7033 35.0843-7.1096 69.6855 4.3977 86.8294-8.8361 8.4348-17.9769 17.5226-22.3747 23.0326-3.4735 4.335-2.4172 6.5547.5586 11.438 0 0 23.1161.5484 29.9616-7.8342 1.6585-2.0108 3.2846-4.0647 4.8751-6.163l31.8913 28.9867-3.0063 41.417c-5.4662.0209-10.9182.7207-16.2808 2.0891-12.071 3.1141-23.4858 9.5108-33.4757 18.763-38.7977 35.8416-47.6846 105.5532-19.8255 155.4181 19.8052 35.4499 54.134 52.8027 87.4269 44.2373 12.077-3.0984 23.4949-9.5029 33.4757-18.776 35.508-32.9116 46.3754-94.6807 25.3404-144.0324l6.3275-5.2489c6.5529 4.6757 14.6151 4.0816 20.709-1.5277 6.3478-5.8757 9.0799-15.7599 7.6986-25.0304l27.8693-10.8373c10.5018-3.9955 12.0558-8.0301 9.4455-14.7153-3.5344-9.1008-30.1647-.8749-33.5163-6.0324l-7.4447-22.0795L467.5528 212.37l24.6092 23.5027c-20.1098 37.6043-20.9731 88.9446.8836 127.9591 19.8254 35.4499 54.1339 52.8027 87.4268 44.2373 12.0689-3.1128 23.4797-9.5095 33.4656-18.763 38.8058-35.92 47.6785-105.4396 19.8355-155.4181m-225.6766-71.7746c12.8175 1.4624 26.0006.0914 37.6094-2.2197l4.2251 12.0125c-9.0484.6841-18.0653 1.9481-27.0162 3.7865-6.7642 1.3057-24.3044-20.8913-14.8285-13.6054m-83.8924 135.036c2.5798-.0522 5.2814-.3134 8.1252-1.0446 16.8435-2.0643 33.6311-4.8298 50.3355-8.2912l-29.21 36.1811zm75.422-8.1476c-6.2971 28.0074-12.5737 47.6844-16.6566 61.551l-19.3176-17.5487zm-43.6728 111.4158c17.6387 3.3009 33.6077 15.2167 44.5868 33.2694l-50.0002 41.5214zm30.4389 159.9489c-7.9495 7.406-17.0456 12.527-26.6709 15.0157-26.5591 6.8288-53.9105-7.0117-69.7241-35.2541-22.2224-39.7848-15.1128-95.3948 15.8136-123.9506 7.9535-7.3981 17.0537-12.506 26.681-14.9764 3.6929-.9428 7.4396-1.4885 11.2026-1.6322l-6.5611 90.3287c-.2031 3.0032 1.0157 5.9149 2.9251 7.4817 1.3508 1.0446 2.9149 1.3841 4.3977.9924.7587-.1855 1.4798-.5628 2.1227-1.1099l60.6037-50.2697c15.8034 38.5575 7.5157 87.2865-20.77 113.4006m28.9154-138.9663c-13.9742-23.7886-34.7533-39.4244-57.7293-43.4408l2.3157-31.8984 19.6324 17.836c-2.1633 10.1322-1.2391 15.4987 5.0783 18.8021l34.3288 16.9742.2031.1697c-1.4696 5.7869-1.2421 12.0661.6399 17.6532zm21.806-38.7533c-2.8743.1045-5.7283 1.1229-8.3893 2.8987-1.493-2.2197-3.7782-4.4786-7.922-7.9126-3.0469-2.6114-17.4387-13.6055-16.8902-15.9296 2.0719-7.9909 6.7236-19.8728 13.4675-36.7295 7.0689 10.0278 14.1885 27.0934 21.1762 44.3026zm6.5001-61.1462l-15.6409-46.3003c.5078-7.3511.2031-13.971-1.0969-19.5856l27.2701-33.3738zm-24.0708-78.5773c-16.5347-15.329-50.7214-7.9257-72.964-3.1598 7.5665-20.4604 20.9223-41.7826 25.3708-66.3038 2.3868 15.6685 42.3728 33.2302 42.3728 33.2302s18.2816-5.1705 33.8616-13.0831l.5078.5614 6.0939 5.7451zm184.1469 128.1811c-7.9668 7.3733-17.067 12.4747-26.6912 14.9634-26.5592 6.8418-53.8293-6.9986-69.7445-35.2541-17.3066-30.9974-16.7378-71.5526-1.0461-101.4925l55.6574 53.1422c1.0776 1.0342 2.4224 1.5016 3.7579 1.3057 1.3711-.1828 2.7118-1.0968 3.6056-2.6114 1.7499-2.9874 1.2909-7.2323-1.0258-9.4924l-54.0934-54.7874c2.722-3.5777 5.6877-6.9595 8.9377-9.9756 8.0643-7.4426 17.0426-12.5087 26.6811-14.9895 26.549-6.8419 53.8292 7.0247 69.7342 35.2801 22.2122 39.7718 15.2347 95.3687-15.8034 123.9637m-420.3456-55.8059l-16.941-38.7533-4.0118 44.1329-33.9226 8.7482 31.4241 18.5671-4.0016 44.1329 23.4309-32.708 31.4851 18.8022-16.941-38.7533 23.4309-32.708zm-15.2347 187.1337l-16.9308-38.7533-4.0017 44.1328-33.9226 8.7222 31.4241 18.5671-4.0118 44.172 23.431-32.7079 31.4342 18.5671-16.9409-38.7794 23.4309-32.6427zM54.8652 435.4367l-16.9308-38.8709-4.0118 44.394L0 449.5775l31.4343 18.541-4.022 44.172 23.4411-32.7079 31.414 18.5671-16.941-38.91 23.4411-32.6427zm379.344-308.6688c4.8345-.3003 15.7831-.7181 28.0115.1828l52.1534-60.1147-22.9129-2.9509-57.5059 62.9089c.0812-.013.1523-.0261.2437-.0261" stroke="none" fill-rule="nonzero"/></svg>