<?xml version="1.0" encoding="UTF-8"?>
<svg xmlns="http://www.w3.org/2000/svg" xmlns:xlink="http://www.w3.org/1999/xlink" viewBox="0 0 24 24" width="24px" height="24px">
<g id="surface1614036">
<path style=" stroke:none;fill-rule:nonzero;fill:rgb(6.27451%,56.078434%,26.666668%);fill-opacity:1;" d="M 21.929688 10.789062 C 21.390625 6.238281 17.671875 2.554688 13.117188 2.0625 C 7.097656 1.40625 2 6.113281 2 12 C 2 16.460938 4.925781 20.238281 8.960938 21.527344 L 8.960938 21.539062 C 8.96875 21.539062 8.988281 21.550781 9 21.550781 C 9.179688 21.609375 9.371094 21.660156 9.558594 21.699219 C 9.628906 21.730469 9.699219 21.738281 9.769531 21.761719 L 9.820312 21.761719 C 9.828125 21.761719 9.835938 21.757812 9.84375 21.757812 C 9.847656 21.757812 9.847656 21.761719 9.851562 21.761719 C 10.449219 21.859375 11.011719 21.378906 11 20.769531 L 11 19.941406 C 10.992188 19.9375 10.988281 19.9375 10.980469 19.9375 L 10.96875 19.011719 L 14.949219 16.019531 C 15.71875 15.378906 16.101562 14.46875 15.980469 13.570312 C 15.980469 13.570312 15.121094 6.671875 15.121094 6.621094 C 15.121094 6.519531 15.089844 6.421875 15.039062 6.328125 C 14.96875 6.179688 14.820312 6.058594 14.648438 6.019531 C 14.648438 6.019531 14.648438 6.019531 14.640625 6.019531 C 14.601562 6.011719 14.550781 6 14.5 6 C 14.148438 6 13.871094 6.28125 13.871094 6.621094 C 13.871094 6.691406 13.789062 12.449219 13.789062 12.449219 C 13.789062 12.460938 13.789062 12.460938 13.789062 12.46875 C 13.789062 12.75 13.570312 12.890625 13.339844 12.96875 C 13.289062 12.988281 13.238281 12.988281 13.199219 12.988281 C 12.851562 12.988281 12.621094 12.761719 12.621094 12.480469 L 12.621094 6.609375 C 12.621094 6.558594 12.609375 6.511719 12.601562 6.460938 C 12.539062 6.199219 12.28125 6.019531 12 6.019531 C 11.730469 6.019531 11.46875 6.199219 11.398438 6.460938 C 11.390625 6.511719 11.378906 6.558594 11.378906 6.609375 L 11.371094 12.5 C 11.371094 12.78125 11.070312 12.988281 10.738281 12.988281 C 10.390625 12.988281 10.121094 12.78125 10.121094 12.5 L 10.121094 6.75 C 10.121094 6.730469 10.121094 6.648438 10.121094 6.628906 C 10.121094 6.28125 9.839844 6 9.488281 6 C 9.449219 6 9.410156 6 9.378906 6.011719 C 9.378906 6.011719 9.378906 6.011719 9.371094 6.011719 C 9.191406 6.050781 8.988281 6.136719 8.960938 6.308594 C 8.632812 8.289062 8.03125 13.46875 8.03125 13.46875 C 7.898438 14.429688 8.128906 15.378906 9 16.03125 L 10.210938 17 C 10.210938 17 8.980469 17.859375 8.980469 19.011719 L 8.980469 19.394531 C 6.058594 18.207031 4 15.339844 4 12 C 4 7.277344 8.117188 3.492188 12.953125 4.054688 C 16.542969 4.472656 19.480469 7.375 19.933594 10.964844 C 20.414062 14.757812 18.21875 18.121094 14.96875 19.421875 L 14.96875 18.941406 C 14.949219 18.421875 14.519531 17.988281 13.980469 17.988281 C 13.429688 17.988281 12.988281 18.441406 12.988281 18.980469 L 12.988281 20.773438 C 12.988281 21.40625 13.570312 21.894531 14.1875 21.757812 C 14.453125 21.699219 14.714844 21.632812 14.96875 21.550781 C 19.402344 20.167969 22.519531 15.78125 21.929688 10.789062 Z M 21.929688 10.789062 "/>
</g>
</svg>
