<svg width="435" height="70" xmlns="http://www.w3.org/2000/svg" xml:space="preserve" version="1.0">

 <g>
  <title>Layer 1</title>
  <path id="svg_1" fill="#06C167" d="m327.3,44.3c0,-8.5 -6.8,-15.2 -15.4,-15.2c-8.5,0 -15.4,6.7 -15.4,15.2s6.9,15.2 15.4,15.2c8.6,0.1 15.4,-6.6 15.4,-15.2m12.6,-24.9l0,49.9l-12.9,0l0,-4.5c-4.5,3.7 -10.1,5.8 -16.3,5.8c-15.2,0 -27.1,-11.7 -27.1,-26.2c0,-14.5 11.9,-26.2 27.1,-26.2c6.1,0 11.8,2.1 16.3,5.8l0,-4.5c0,-0.1 12.9,-0.1 12.9,-0.1zm42.6,38.6l-9.7,0c-2.9,0 -4.8,-1.3 -4.8,-3.9l0,-23.4l14.5,0l0,-11.3l-14.5,0l0,-14.2l-13,0l0,14.2l-9.8,0l0,11.3l9.8,0l0,26.5c0,6.7 4.8,12 13.5,12l13.9,0l0.1,-11.2l0,0zm29.3,12.6c14.8,0 23.2,-6.9 23.2,-16.5c0,-6.8 -5,-11.9 -15.3,-14.1l-11,-2.2c-6.3,-1.1 -8.4,-2.3 -8.4,-4.6c0,-3 3,-4.8 8.7,-4.8c6.1,0 10.6,1.6 11.9,7.2l12.8,0c-0.7,-10.4 -8.4,-17.4 -23.9,-17.4c-13.4,0 -22.8,5.4 -22.8,16c0,7.3 5.2,12 16.4,14.3l12.2,2.8c4.8,0.9 6.1,2.2 6.1,4.1c0,3.1 -3.7,5.1 -9.5,5.1c-7.4,0 -11.7,-1.6 -13.3,-7.2l-13,0c2,10.3 9.9,17.3 25.9,17.3m-179.9,-68.9l48.4,0l0,11.5l-35.3,0l0,16.5l34.4,0l0,11.3l-34.4,0l0,16.7l35.3,0l0,11.5l-48.4,0l0,-67.5z" class="st0"/>
  <path id="svg_2" fill="#142328" d="m202.9,28.7l0,-9.1l-3.5,0c-5.5,0 -9.5,2.5 -12,6.5l0,-6.1l-9.8,0l0,49.2l9.9,0l0,-28c0,-7.6 4.7,-12.6 11.2,-12.6l4.2,0l0,0.1zm-71.3,11.4c1.8,-7.5 8,-12.6 15.3,-12.6s13.6,5 15.2,12.6c0,0 -30.5,0 -30.5,0zm15.5,-21c-14.6,0 -25.8,11.7 -25.8,25.6c0,14.7 11.6,25.7 26.7,25.7c9.1,0 16.6,-3.9 21.6,-10.5l-7.2,-5.2c-3.7,4.9 -8.7,7.2 -14.5,7.2c-8.5,0 -15.2,-6 -16.6,-14l40.8,0l0,-3.2c0.1,-14.7 -10.5,-25.6 -25,-25.6m-56.7,42.7c-9.6,0 -17.3,-7.6 -17.3,-17.1c0,-9.5 7.8,-17.1 17.3,-17.1c9.4,0 17.2,7.5 17.2,17.1c0,9.5 -7.8,17.1 -17.2,17.1m-27.1,7.5l9.8,0l0,-6.2c4.5,4.6 10.9,7.3 17.9,7.3c14.7,0 26.3,-11.5 26.3,-25.7c0,-14.3 -11.6,-25.8 -26.3,-25.8c-7,0 -13.3,2.8 -17.8,7.3l0,-24.6l-9.9,0c0,0.1 0,67.7 0,67.7zm-34.9,-8c9.5,0 16.9,-7.2 16.9,-18l0,-41.7l10.3,0l0,67.5l-10.2,0l0,-6.1c-4.6,4.7 -11,7.4 -18.2,7.4c-14.7,0 -26,-10.5 -26,-26.5l0,-42.3l10.4,0l0,41.7c-0.1,11 7.2,18 16.8,18" class="st1"/>
 </g>
</svg>