<svg width="361" height="165" xmlns="http://www.w3.org/2000/svg" clip-rule="evenodd" fill-rule="evenodd" stroke-linejoin="round" stroke-miterlimit="1.41421">
 <g>
  <title>Layer 1</title>
  <g fill-rule="nonzero" id="svg_1">
   <g fill="#e9e9e9" id="svg_2">
    <path d="m253.9639,73.89687c-2.28322,3.65568 -3.23825,15.14136 -2.44766,22.77529c0.27196,2.51724 0.72102,4.61704 1.39776,5.86301c0.91076,1.7393 2.44134,2.77655 4.18696,2.83347c1.10682,0.05692 1.80887,-0.12649 22.85751,-6.91291c0,0 9.35425,-2.97261 9.40485,-2.99159c2.31484,-0.60085 3.89602,-2.7386 4.04782,-5.4772c0.15179,-2.8145 -1.30922,-5.28746 -3.68731,-6.18557l-6.603,-2.69433c-22.62982,-9.33528 -23.63545,-9.68946 -24.78655,-9.70211c-1.7393,-0.08222 -3.28885,0.80956 -4.37038,2.49194" id="svg_3"/>
    <path d="m304.55652,143.41812c0.37316,-1.06255 0.41111,-1.78989 0.46803,-23.90109c0,0 0.05692,-9.77168 0.0759,-9.8792c0.13914,-2.37809 -1.40409,-4.56644 -3.94662,-5.54677c-2.61211,-1.01195 -5.4266,-0.39213 -7.01411,1.58118c0,0 -4.60439,5.46455 -4.62337,5.47088c-15.84341,18.62628 -16.5075,19.47379 -16.88698,20.58694c-0.24034,0.64512 -0.33521,1.32819 -0.25931,2.02391c0.1012,0.98033 0.5376,1.97331 1.29024,2.85877c3.66833,4.38303 21.29531,10.86586 26.91165,9.9045c1.95434,-0.35418 3.38372,-1.46733 3.98457,-3.09911" id="svg_4"/>
    <path d="m340.2886,135.7222c5.32541,-2.11878 16.92493,-16.86801 17.73449,-22.53495c0.27829,-1.97964 -0.33521,-3.67466 -1.70135,-4.76883c-0.87914,-0.67042 -1.58118,-0.92973 -22.5982,-7.83632c0,0 -9.24041,-3.04851 -9.3416,-3.09911c-2.24527,-0.87281 -4.78781,-0.06957 -6.5018,2.04921c-1.78357,2.16938 -2.06186,5.02182 -0.62615,7.1912l3.71261,6.0401c12.49131,20.28968 13.43369,21.71906 14.3318,22.42743c1.39144,1.08153 3.16868,1.27759 4.9902,0.53128" id="svg_5"/>
    <path d="m329.44553,83.50537c23.90741,-5.78079 24.8245,-6.08437 25.7732,-6.7042c1.44836,-0.98666 2.16305,-2.60578 2.04288,-4.61072c0,-0.06957 0.00632,-0.12649 0,-0.19607c-0.61982,-5.86301 -10.89748,-21.13719 -15.96357,-23.61648c-1.80254,-0.85384 -3.59876,-0.79691 -5.07874,0.18974c-0.92341,0.61982 -1.6128,1.50528 -14.40137,19.02474c0,0 -5.78711,7.88059 -5.85668,7.95016c-1.52426,1.84682 -1.54323,4.50952 -0.06325,6.79274c1.53691,2.35912 4.15534,3.51022 6.54608,2.84612c0,0 -0.10752,0.16444 -0.12649,0.20239c1.17007,-0.44905 3.29518,-0.96768 7.12795,-1.87844" id="svg_6"/>
    <path d="m305.43692,63.76721c-0.41743,-9.47442 -3.25723,-51.65393 -3.59244,-53.60194c-0.487,-1.78357 -1.87211,-3.04219 -3.8644,-3.54184c-6.0907,-1.51793 -29.42256,5.02815 -33.74234,9.48707c-1.37879,1.44203 -1.89741,3.23193 -1.48631,4.81311c0.67674,1.39144 29.57436,46.8598 29.57436,46.8598c4.27551,6.93189 7.76042,5.85036 8.89887,5.49618s4.60439,-1.43571 4.21226,-9.51237" id="svg_7"/>
   </g>
   <g fill="#bf2519" id="svg_8">
    <path d="m255.87646,69.11539c-2.2769,3.64936 -3.23825,15.14136 -2.44766,22.76897c0.27829,2.51724 0.73367,4.61704 1.39776,5.86933c0.91076,1.73297 2.44134,2.7639 4.18696,2.82715c1.11947,0.05692 1.81519,-0.13282 22.86384,-6.90026c0,0 9.35425,-2.98526 9.3922,-3.00424c2.33382,-0.59452 3.90235,-2.7386 4.05414,-5.4772c0.15179,-2.80817 -1.29657,-5.28746 -3.68731,-6.18557c0,0 -6.59668,-2.688 -6.60932,-2.688c-22.61717,-9.32895 -23.63545,-9.69578 -24.7739,-9.70843c-1.74562,-0.06957 -3.29518,0.80956 -4.3767,2.49826" id="svg_9"/>
    <path d="m306.47418,138.62651c0.36683,-1.06255 0.41111,-1.78989 0.47435,-23.90109c0,0 0.0506,-9.77168 0.05692,-9.86655c0.15179,-2.39707 -1.39776,-4.57909 -3.93397,-5.5531c-2.61211,-1.00563 -5.4266,-0.38581 -7.00778,1.58118c0,0 -4.61704,5.4772 -4.62969,5.4772c-15.84341,18.61363 -16.5075,19.47379 -16.89331,20.57429c-0.23401,0.64512 -0.32889,1.34084 -0.25299,2.03023c0.09487,0.98666 0.54393,1.96066 1.28392,2.87142c3.67466,4.36405 21.29531,10.84688 26.9243,9.88553c1.95434,-0.35418 3.3774,-1.45468 3.97824,-3.09911" id="svg_10"/>
    <path d="m342.22147,130.9306c5.31276,-2.11878 16.89963,-16.86168 17.71552,-22.53495c0.28461,-1.97331 -0.33521,-3.67466 -1.69502,-4.76251c-0.89178,-0.67042 -1.56853,-0.92973 -22.60452,-7.83632c0,0 -9.22776,-3.04851 -9.34793,-3.10543c-2.23262,-0.86649 -4.78148,-0.06325 -6.49548,2.04921c-1.78357,2.16938 -2.04921,5.03447 -0.62615,7.19752l3.71261,6.04643c12.48498,20.27703 13.44001,21.71274 14.33812,22.41478c1.39144,1.09418 3.16236,1.27127 5.00285,0.53128" id="svg_11"/>
    <path d="m331.34799,78.72389c23.90741,-5.79344 24.83082,-6.09702 25.7732,-6.71684c1.44836,-0.97401 2.1757,-2.60578 2.04921,-4.59174c0,-0.06325 0.01265,-0.13282 0,-0.20239c-0.6135,-5.86933 -10.89748,-21.13719 -15.96357,-23.61648c-1.79622,-0.86016 -3.59244,-0.80324 -5.08507,0.19607c-0.92341,0.60085 -1.60015,1.51161 -14.40137,19.01841c0,0 -5.78079,7.87427 -5.85036,7.95016c-1.52426,1.85314 -1.54955,4.50952 -0.05692,6.78642c1.54323,2.35912 4.14901,3.51022 6.53975,2.84612c0,0 -0.09487,0.17077 -0.12017,0.20239c1.1764,-0.44273 3.28253,-0.96136 7.1153,-1.87211" id="svg_12"/>
    <path d="m307.34952,58.98573c-0.41111,-9.47442 -3.26355,-51.66025 -3.59876,-53.61459c-0.48068,-1.77092 -1.86579,-3.03586 -3.85175,-3.53551c-6.10335,-1.51161 -29.42889,5.02182 -33.74867,9.48074c-1.39144,1.44836 -1.90374,3.23193 -1.48631,4.81311c0.68307,1.39776 29.58068,46.86612 29.58068,46.86612c4.26918,6.92556 7.7541,5.85036 8.89887,5.48985c1.13212,-0.34786 4.59807,-1.42306 4.20593,-9.49972" id="svg_13"/>
   </g>
   <path d="m11.34285,158.9769c3.01056,2.7892 8.71545,3.57979 15.64734,2.16938c6.49548,-1.28392 10.52432,-4.18696 14.40137,-16.51382l19.30935,-60.66664c0.9993,-3.21928 0.92341,-6.0148 -0.22136,-8.08931c-0.92973,-1.66972 -2.47929,-2.80185 -4.66764,-3.38372c-3.44064,-0.94238 -7.73512,-0.84751 -10.4421,8.39922l-10.13219,34.41276s-20.63754,-38.98553 -20.65019,-38.99185c-1.30289,-2.60578 -5.12302,-4.47157 -9.01272,-2.92834c-5.07242,1.92904 -6.76112,6.48916 -4.73721,12.36481c0,0 25.10278,51.0847 25.15971,51.22385c0,0 0.68307,1.82152 0.68307,2.11878c0,0 0.22769,1.38511 0.22769,1.43571c-0.0506,1.96699 -0.70837,3.62406 -1.88476,4.73089c-1.15742,1.08785 -2.7639,1.65707 -4.64234,1.58118c0,0 -3.915,-0.08855 -4.21226,-0.08855c-4.02252,0.49333 -6.5524,2.80185 -6.95718,6.36899c-0.28461,2.29587 0.45538,4.31345 2.13143,5.85668" fill="#231f20" id="svg_14"/>
   <path d="m110.2563,101.45744l-26.88003,0c-0.72734,-0.53128 -1.08153,-1.42306 -0.5376,-4.10474c0.34153,-1.41041 0.70837,-2.67535 1.78357,-4.44627c0.34786,-0.53128 0.70837,-1.0752 1.05623,-1.61913c1.96699,-2.48561 4.62969,-4.07944 7.65923,-4.78781c9.44912,-2.30852 16.03947,2.49194 17.10835,10.68244c0.5123,3.57346 0.17709,4.27551 -0.18974,4.27551l-0.00001,0zm16.52015,-4.68029c-0.86649,-8.76605 -4.25021,-15.60939 -9.79698,-19.80268c-5.90728,-4.48422 -14.26855,-5.91361 -24.16673,-4.14269c-12.40909,2.1504 -19.8596,11.01765 -21.56727,25.67833c-2.0998,17.52578 0.78426,30.73178 8.36759,38.20127c5.71754,5.64797 14.17368,7.89324 24.45766,6.5018c14.66701,-2.06186 21.26368,-10.11322 21.26368,-15.20461c0,-3.74423 -2.26425,-6.69155 -5.59105,-7.1406c-1.90374,-0.37948 -3.51022,0 -7.0647,3.18133c-5.12302,4.46525 -11.06192,6.26147 -16.32408,4.92695c-4.00987,-1.01828 -7.1406,-3.78218 -8.55734,-7.57068c0,0 -0.63247,-2.50459 -0.59452,-2.2263c-0.43008,-2.25792 -0.62615,-4.49687 0.76529,-5.40763l0.37316,-0.25299l32.21809,0c2.97261,0 4.4779,-0.38581 5.34438,-1.32186c1.77092,-1.96699 1.63178,-7.58333 0.87281,-15.41965" fill="#231f20" id="svg_15"/>
   <path d="m155.98143,50.41447c-2.54886,-1.03725 -5.4266,-0.75897 -7.95016,0.74632c-2.42869,1.43571 -3.44064,3.62406 -3.44064,7.57701l0,76.81996s0.42376,2.74493 0.46803,2.86509c0.54393,1.91639 1.96066,3.54816 3.92765,4.43995c2.18203,1.01195 4.69926,0.99298 6.95086,-0.06325c2.80185,-1.21434 4.4526,-4.01619 4.4526,-7.48846l0,-76.96543s-0.487,-3.71893 -0.487,-3.7885c-0.44905,-1.78357 -1.92271,-3.3268 -3.92132,-4.14269" fill="#231f20" id="svg_16"/>
   <path d="m216.77457,128.44119c-10.63817,0 -12.33319,-9.4428 -12.6684,-16.57075c-0.01897,-0.01897 -0.13914,-4.17431 -0.13914,-4.17431s0.12017,-3.08646 0.12017,-3.20663c0.68939,-12.33319 3.23825,-17.19689 9.74638,-18.55038c4.37038,-1.01195 7.70982,-0.51863 10.21441,1.49896c3.7632,3.02954 5.42028,9.4428 5.26849,20.14421c-0.10752,12.52926 -2.28955,20.8589 -12.54191,20.8589zm0.79059,-56.40379c-7.12795,-1.45468 -13.22497,-0.23401 -19.08798,3.73791c0,0 -0.65777,0.53128 -0.91076,0.68307l-0.52495,0.26564l-1.60648,0.72102l-0.45538,-1.80254l-0.38581,-0.65145l-0.13282,-0.40478l-0.04427,-0.12017s-0.39213,-0.52495 -0.44905,-0.60717c-1.68237,-2.61843 -6.25514,-3.82013 -10.37885,-1.46733c-2.01758,1.14477 -3.17501,2.75757 -3.17501,7.57068l0,75.3969c0,4.13004 1.29657,6.69787 4.13004,8.05136c2.39074,1.2017 5.07874,1.29657 7.38726,0.30359c1.96066,-0.86016 3.4027,-2.37809 3.9403,-4.22491l0.47435,-3.23193l0,-13.04788l-0.13914,-2.0998l0.05692,-0.61982l0.08222,-0.29726l0.77794,-2.48561l2.35912,1.56853s0.59452,0.39213 0.84751,0.65777l0.70837,0.46803c0.00632,0.00632 0.82221,0.48068 0.82221,0.48068c0.01265,0 0.75897,0.36683 0.75897,0.36683c6.32471,2.98526 14.78718,2.63741 21.59889,-0.87281c8.57631,-4.4779 12.81387,-12.42174 13.7942,-25.76056c2.04921,-26.65866 -4.08576,-39.39664 -20.4478,-42.57797" fill="#231f20" id="svg_17"/>
   <path d="m250.61938,134.34595l0.87914,0c0.71469,0 1.38511,-0.03795 1.38511,-0.84119c0,-0.72102 -0.6135,-0.79691 -1.16375,-0.79691l-1.1005,0l0,1.6381zm-0.72102,-2.28322l1.88476,0c1.23332,0 1.80887,0.44905 1.80887,1.47366c0,0.92341 -0.5882,1.30922 -1.35981,1.39144l1.48631,2.27057l-0.77794,0l-1.40409,-2.20732l-0.91708,0l0,2.20732l-0.72102,0l0,-5.13567zm1.6634,6.32471c2.08083,0 3.75688,-1.6381 3.75688,-3.80748c0,-2.13143 -1.67605,-3.77585 -3.75688,-3.77585c-2.08716,0 -3.7632,1.64443 -3.7632,3.82013c0,2.1251 1.67605,3.7632 3.7632,3.7632zm0,-8.22213c2.42869,0 4.47157,1.91006 4.47157,4.41465c0,2.54886 -2.04288,4.4526 -4.47157,4.4526c-2.43501,0 -4.47157,-1.90374 -4.47157,-4.40832c0,-2.54886 2.03656,-4.45892 4.47157,-4.45892" fill="#231f20" id="svg_18"/>
  </g>
 </g>

</svg>