<?xml version="1.0" encoding="UTF-8"?>
<svg xmlns="http://www.w3.org/2000/svg" xmlns:xlink="http://www.w3.org/1999/xlink" viewBox="0 0 48 48" width="48px" height="48px">
<g id="surface1620854">
<path style=" stroke:none;fill-rule:nonzero;fill:rgb(90.588236%,29.803923%,23.529412%);fill-opacity:1;" d="M 21.515625 6 C 19.308594 6.078125 14.613281 7.480469 13.640625 8.484375 C 13.285156 8.855469 13.113281 9.347656 13.21875 9.75 C 13.394531 10.105469 20.8125 21.75 20.8125 21.75 C 21.914062 23.53125 22.816406 23.25 23.109375 23.15625 C 23.402344 23.066406 24.289062 22.796875 24.1875 20.71875 C 24.082031 18.289062 23.386719 7.488281 23.296875 6.984375 C 23.171875 6.527344 22.78125 6.175781 22.265625 6.046875 C 22.074219 6 21.832031 5.988281 21.515625 6 Z M 32.71875 16.640625 C 32.496094 16.644531 32.304688 16.699219 32.109375 16.828125 C 31.875 16.980469 31.695312 17.210938 28.40625 21.703125 C 28.40625 21.703125 26.925781 23.75 26.90625 23.765625 C 26.515625 24.242188 26.527344 24.914062 26.90625 25.5 C 27.304688 26.105469 27.9375 26.421875 28.546875 26.25 C 28.546875 26.25 28.554688 26.285156 28.546875 26.296875 C 28.851562 26.1875 29.390625 26.015625 30.375 25.78125 C 36.515625 24.292969 36.746094 24.253906 36.984375 24.09375 C 37.355469 23.84375 37.53125 23.386719 37.5 22.875 C 37.5 22.859375 37.507812 22.847656 37.5 22.828125 C 37.34375 21.324219 34.722656 17.414062 33.421875 16.78125 C 33.195312 16.671875 32.941406 16.636719 32.71875 16.640625 Z M 12.09375 22.6875 C 11.648438 22.671875 11.246094 22.910156 10.96875 23.34375 C 10.382812 24.28125 10.152344 27.199219 10.359375 29.15625 C 10.4375 29.808594 10.519531 30.382812 10.6875 30.703125 C 10.921875 31.148438 11.320312 31.390625 11.765625 31.40625 C 12.054688 31.417969 12.269531 31.359375 17.671875 29.625 C 17.671875 29.625 20.050781 28.882812 20.0625 28.875 C 20.660156 28.722656 21.054688 28.171875 21.09375 27.46875 C 21.132812 26.75 20.765625 26.105469 20.15625 25.875 C 20.15625 25.875 18.476562 25.171875 18.46875 25.171875 C 12.664062 22.777344 12.386719 22.695312 12.09375 22.6875 Z M 28.640625 29.296875 C 28.195312 29.285156 27.703125 29.496094 27.375 29.90625 C 26.917969 30.460938 26.871094 31.222656 27.234375 31.78125 L 28.171875 33.328125 C 31.375 38.539062 31.640625 38.867188 31.875 39.046875 C 32.230469 39.328125 32.671875 39.375 33.140625 39.1875 C 34.507812 38.644531 37.476562 34.882812 37.6875 33.421875 C 37.757812 32.914062 37.617188 32.484375 37.265625 32.203125 C 37.039062 32.03125 36.851562 31.960938 31.453125 30.1875 C 31.453125 30.1875 29.09375 29.40625 29.0625 29.390625 C 28.921875 29.335938 28.789062 29.300781 28.640625 29.296875 Z M 22.078125 30.984375 C 21.761719 31.054688 21.488281 31.246094 21.28125 31.5 C 21.28125 31.5 20.117188 32.90625 20.109375 32.90625 C 16.035156 37.683594 15.894531 37.875 15.796875 38.15625 C 15.738281 38.320312 15.683594 38.542969 15.703125 38.71875 C 15.726562 38.976562 15.835938 39.191406 16.03125 39.421875 C 16.972656 40.542969 21.527344 42.199219 22.96875 41.953125 C 23.472656 41.859375 23.796875 41.625 23.953125 41.203125 C 24.046875 40.925781 24.078125 40.742188 24.09375 35.0625 C 24.09375 35.0625 24.09375 32.558594 24.09375 32.53125 C 24.132812 31.914062 23.757812 31.328125 23.109375 31.078125 C 22.777344 30.949219 22.394531 30.914062 22.078125 30.984375 Z M 22.078125 30.984375 "/>
</g>
</svg>
